<?xml version="1.0" encoding="UTF-8" standalone="no"?>
<!DOCTYPE svg PUBLIC "-//W3C//DTD SVG 1.1//EN" "http://www.w3.org/Graphics/SVG/1.1/DTD/svg11.dtd">
<svg version="1.1" xmlns="http://www.w3.org/2000/svg" xmlns:xlink="http://www.w3.org/1999/xlink" preserveAspectRatio="xMidYMid meet" viewBox="0 0 1200 630" width="1200" height="630"><defs><path d="M752.09 398.98C757.36 363.32 763.96 336.18 771.89 317.57C779.83 298.95 789.96 286.02 802.31 278.78" id="a71YRnmhs"></path><path d="M850.87 334.97L849.23 344.8L844.97 350.7L838.42 363.15L828.26 378.55L815.15 395.59L802.31 412.7L789.92 423.51C786.48 425.56 783.31 427.82 780.41 430.3C777.52 432.78 774.9 435.48 772.55 438.39L753.22 469.19L727 508.19C719.16 516.23 715.37 525.49 715.64 535.97C715.92 546.46 720.25 558.17 728.64 571.11C732.08 576.36 736.31 580.32 741.34 583C746.36 585.68 749.95 587.06 752.09 587.16C762.15 585.82 769.26 584.08 773.41 581.95C777.56 579.82 780.99 577.3 783.69 574.38C787.11 570.47 790.52 563.9 793.9 554.69C797.29 545.47 800.66 533.61 804.01 519.1C803.74 523.29 803.74 527.04 804.01 530.36C804.28 533.67 804.83 536.55 805.65 538.99C804.82 543.75 803.94 547.93 803.01 551.53C802.08 555.14 801.1 558.17 800.08 560.62C797.93 563.24 795.87 566.27 793.9 569.71C791.94 573.15 790.06 577 788.28 581.26C786.26 584.13 783.63 587.28 780.41 590.72C777.19 594.16 773.37 597.89 768.95 601.91C762.86 605.4 757.08 609 751.62 612.71C746.16 616.42 741.01 620.25 736.18 624.19C734.09 625.01 732.15 625.34 730.34 625.18C728.54 625.01 726.88 624.36 725.36 623.21C719.8 619.21 714.94 614.88 710.79 610.21C706.64 605.54 703.2 600.53 700.46 595.19C698.97 590.57 697.79 585.62 696.91 580.35C696.04 575.08 695.47 569.49 695.22 563.57C695.47 559.01 696.04 554.55 696.91 550.18C697.79 545.81 698.97 541.53 700.46 537.35L708.98 519.1L714.55 499.34L729.3 470.47L736.18 453.1L742.4 432.79C742.4 432.79 742.4 432.79 742.4 432.79C746.59 428.03 748.32 421.59 747.06 415.38C747 415.12 746.87 414.48 746.66 413.45L752.09 398.98" id="c23lVKwtK0"></path><path d="M803.68 520.21L820.77 487.38L827.93 473.62C832.92 473.54 838.04 473.12 843.29 472.36C848.53 471.6 853.9 470.49 859.39 469.03C860.45 468.2 863.79 466.59 869.41 464.19C875.04 461.78 881.68 459.36 889.33 456.9C891.76 453.61 894.67 451.08 898.06 449.32C901.45 447.56 906.58 445.81 913.46 444.06C916.25 442.62 919.47 441.27 923.13 440.02C926.79 438.76 930.88 437.6 935.42 436.52C938.53 434.75 940.93 433.19 942.63 431.82C944.32 430.46 945.3 429.29 945.58 428.33C945.9 426.37 945.9 424.49 945.58 422.69C945.25 420.89 944.59 419.16 943.61 417.51L928.86 422.1C926.43 423.46 923.44 424.5 919.89 425.21C916.34 425.92 912.23 426.3 907.56 426.36L898.06 429.64L900.68 426.36C901.44 425.47 904.04 423.83 908.46 421.42C912.89 419.02 919.14 415.86 927.22 411.94C929.71 410.2 932.71 408.56 936.2 407.03C939.7 405.5 943.7 404.08 948.2 402.77L959.01 395.23C960.66 394.02 962.11 392.78 963.37 391.53C964.63 390.27 965.69 388.99 966.55 387.69C966.53 386.02 966.16 384.32 965.45 382.57C964.74 380.82 963.69 379.03 962.29 377.21L942.63 386.71C940.75 388.2 938.14 389.49 934.81 390.58C931.48 391.68 927.42 392.57 922.64 393.27L936.73 385.73C938.61 384.32 941.32 382.91 944.88 381.49C948.43 380.07 952.81 378.64 958.03 377.21C961.09 376.45 963.93 375.39 966.55 374.03C969.17 372.66 971.57 370.99 973.76 369.02C974.14 366.46 973.81 364.16 972.77 362.14C971.74 360.12 969.99 358.37 967.53 356.89C965.11 356.82 961.53 357.58 956.78 359.17C952.02 360.75 946.11 363.16 939.02 366.39C936.27 367.42 932.99 368.64 929.16 370.06C925.34 371.48 920.98 373.1 916.08 374.91L893.14 386.71C897.57 383.49 901.83 380.62 905.92 378.11C910.02 375.59 913.95 373.44 917.72 371.64C920.89 369.43 924.06 367.37 927.22 365.45C930.39 363.54 933.56 361.78 936.73 360.17C939.95 358.8 942.9 357.27 945.58 355.58C948.25 353.89 950.65 352.03 952.78 350.01C953.55 348.37 953.55 346.62 952.78 344.77C952.02 342.91 950.49 340.95 948.2 338.88C946.61 338.5 944.76 338.5 942.63 338.88C940.5 339.26 938.09 340.02 935.42 341.16C932.14 343.42 928.04 345.75 923.13 348.15C918.21 350.56 912.48 353.03 905.92 355.58C902.78 358.23 897.25 361.52 889.33 365.45C881.41 369.39 871.1 373.96 858.41 379.17C857.05 378.36 856.26 376.94 856.04 374.91C855.82 372.89 856.17 370.27 857.1 367.05C858.33 362.69 859.65 358.66 861.07 354.95C862.49 351.23 864.01 347.84 865.62 344.77C865.84 341.09 865.35 337.59 864.15 334.26C862.95 330.93 861.03 327.77 858.41 324.78" id="cJDyZjm1l"></path><path d="M896.42 406.5C900.65 403.67 904.92 401.17 909.23 398.98C913.55 396.8 917.91 394.94 922.31 393.4" id="atmIbk46W"></path><path d="M903.22 84.56C904.83 85.2 908.45 88.02 914.08 93.02L950.06 114.3L968.19 120.89C972.22 136.67 975.38 152.84 977.68 169.39C979.97 185.93 981.4 202.86 981.95 220.18C979.35 224.07 977.62 226.67 976.76 227.97C975.89 229.26 975.89 229.26 976.76 227.97L972.12 234.92C966.85 241.67 958.54 248.92 947.18 256.67C935.82 264.43 921.41 272.69 903.96 281.46C895.49 283.39 888.5 283.95 882.98 283.14C877.46 282.32 873.42 280.12 870.86 276.54C869.57 273.46 868.48 270.42 867.58 267.43C866.69 264.44 865.66 261.49 864.5 258.59C862.21 254.69 860.07 250.97 858.08 247.43C856.09 243.89 854.58 240.53 853.56 237.35C848.36 221.81 845.06 212.2 843.66 208.52C837.55 192.4 834.38 182.86 834.16 179.87C834.85 174.43 835.68 169.61 836.66 165.4C837.65 161.19 838.78 157.61 840.06 154.64C838.51 149.12 837.37 144.17 836.66 139.8C835.95 135.43 835.67 131.64 835.8 128.42C837.25 124.09 838.64 119.38 839.95 114.3C841.26 109.22 842.5 103.77 843.66 97.95C844.57 93.88 846.22 90.39 848.63 87.5C851.03 84.61 854.18 82.3 858.08 80.58C859.99 79.92 861.74 79.6 863.32 79.6C864.91 79.6 866.33 79.92 867.58 80.58C874.57 76.51 886.45 77.84 903.22 84.56Z" id="b3iV0GtjyC"></path><path d="M836.45 131.04C839.78 129.5 843.12 129.14 846.45 129.96C849.78 130.78 853.11 132.78 856.44 135.96" id="d8G8gfgkJ"></path><path d="M939.02 142.84C924.68 136.21 911.91 132.18 900.72 130.76C889.52 129.34 879.9 130.53 871.84 134.32" id="iqKK8tRBJ"></path><path d="M917.07 157.91C908.51 155.45 901.75 153.94 896.78 153.39C891.81 152.85 888.63 153.26 887.25 154.64" id="a5eb4zbZNV"></path><path d="M840.71 153.98C842.5 152.38 845.11 151.51 848.55 151.38C851.99 151.24 856.26 151.83 861.36 153.16" id="hDqYfeAAA"></path><path d="M916.08 157.91C910.84 161.14 905.82 162.56 901.01 162.16C896.2 161.77 891.62 159.56 887.25 155.54" id="f81KaIjN5"></path><path d="M840.71 153.98C843.17 157.25 846.12 158.88 849.56 158.88C853 158.88 856.93 157.25 861.36 153.98" id="cvvbE2Z31"></path><path d="M897.73 161.52C896.59 160.21 895.82 158.93 895.44 157.67C895.06 156.42 895.06 155.19 895.44 153.98" id="aBWpZ4Bo3"></path><path d="M854.8 157.91C855.02 156.78 855.02 155.78 854.8 154.91C854.59 154.03 854.15 153.29 853.49 152.67" id="bCCTLiq1n"></path><path d="M906.25 161.52C906.91 160.76 907.24 159.88 907.24 158.88C907.24 157.88 906.91 156.77 906.25 155.54" id="b16dV3v0v"></path><path d="" id="c8DmG3lV7"></path><path d="M845.63 157.91C844.97 157.26 844.65 156.5 844.65 155.62C844.65 154.75 844.97 153.76 845.63 152.67" id="cdS9zUjHU"></path><path d="M878.73 183.8C882.55 189.48 884.3 193.85 883.97 196.91C883.64 199.97 880.04 201.72 873.16 202.15L869.55 203.14L860.51 202.15C854.91 198.72 851.75 196.49 851.04 195.47C849.29 192.95 848.36 190.16 848.25 187.08C848.74 185.57 849.67 183.51 851.04 180.89C852.4 178.27 854.2 175.09 856.44 171.35C858.63 167.52 860.27 163.36 861.36 158.88C862.45 154.4 863 149.6 863 144.48" id="htg34E4Fq"></path><path d="M1032.98 284.73C1026.39 290.76 1018.84 296.59 1010.34 302.21C1001.83 307.84 992.37 313.26 981.95 318.49C966.56 323.27 952 325.75 938.28 325.91C924.55 326.08 911.66 323.93 899.61 319.47C892.92 316.57 887.72 312.07 884.01 305.95C880.29 299.83 878.07 292.11 877.32 282.77" id="e4wqpX4Qgi"></path><path d="M1158.16 360.76C1157.11 349.64 1151.46 337.38 1141.19 324C1130.92 310.62 1115.06 296.44 1093.6 281.46C1081.36 276.06 1069.89 273.72 1059.19 274.43C1048.48 275.14 1039.53 278.57 1032.32 284.73" id="b2FNqG2gRW"></path><path d="M1196.69 630.38C1197 628.28 1196.49 625.88 1195.18 623.16C1193.87 620.43 1191.75 617.4 1188.83 614.04C1190.14 611.38 1190.69 608.55 1190.47 605.54C1190.25 602.54 1189.27 599.37 1187.52 596.02C1189.48 593.13 1190.47 590.07 1190.47 586.84C1190.47 583.62 1189.48 580.24 1187.52 576.69L1185.88 550.8C1186.6 546.42 1186.87 541.94 1186.71 537.36C1186.55 532.77 1185.94 528.07 1184.9 523.27C1185.55 511.04 1185.88 498.59 1185.88 485.91C1185.88 473.24 1185.55 460.35 1184.9 447.25L1158.16 360.76" id="bYOZIbuXT"></path><path d="M1076.13 506.43C1083.89 526.14 1090.66 546.24 1096.45 566.72C1102.24 587.2 1107.05 608.07 1110.87 629.31" id="cA5y66OkG"></path><path d="M1061.35 391.41C1066.51 406.92 1070.31 424.29 1072.77 443.52C1075.23 462.74 1076.34 483.82 1076.1 506.76" id="a2hP2wzR3N"></path><path d="M821.83 630.38C821.8 622.31 821.43 613.77 820.72 604.75C820.01 595.72 818.96 586.21 817.57 576.23C814.55 571.23 812.05 565.62 810.09 559.4C808.12 553.17 806.68 546.33 805.78 538.87" id="f1zinNV2Ch"></path><path d="M854.97 242.83C856.1 240.87 856.85 239.07 857.23 237.43C857.6 235.79 858.15 234.32 858.86 233" id="bxb904Otv"></path><path d="M859.85 220.22C855.48 219.07 853.1 219.63 852.71 221.93C852.32 224.22 854.14 227.59 858.16 232.02" id="a16Daw1zek"></path><path d="" id="a7rdxyET8f"></path><path d="M892.94 233C888.05 227.31 882.84 223.35 877.32 221.13C871.81 218.9 865.98 218.4 859.85 219.64" id="b5YSWxHju"></path><path d="M876.4 253.97C881.91 251.11 886.04 247.85 888.8 244.19C891.56 240.53 892.94 236.48 892.94 232.02" id="c15V1D1xbf"></path><path d="M858.86 250.04C860.05 252.01 862.19 253.32 865.26 253.97C868.34 254.63 872.36 254.63 877.32 253.97" id="ewaOEuNiI"></path><path d="M891.96 233L881.82 239.13C874.36 240.37 869.54 240.96 867.38 240.89C862.28 240.73 859.77 237.77 859.85 232.02" id="f1dkI2o8CC"></path><path d="M859.85 232.02C859.6 230.99 859.6 229.96 859.85 228.93C860.1 227.9 860.6 226.87 861.36 225.83C866.9 225.42 872.22 225.73 877.32 226.77C882.42 227.8 887.3 229.55 891.96 232.02" id="bnECIDg5e"></path><path d="M858.86 325.92C856.5 324.5 854.43 315.56 852.66 299.09C850.89 282.62 849.42 258.62 848.25 227.1" id="a1F3vuTBC"></path><path d="M858.86 80.52C841.16 80.08 828.93 94.17 822.16 122.8C815.38 151.42 814.08 194.57 818.23 252.25C822.68 274.87 828.75 294.09 836.45 309.93C844.15 325.76 853.48 338.21 864.43 347.27" id="c1uK6SpUfy"></path><path d="M815.86 264.36C807.71 272.25 802.27 279.26 799.55 285.37C796.83 291.49 796.83 296.72 799.55 301.06" id="d6ZZp01Ie2"></path><path d="M820.2 274.31C820.29 278.43 818.84 282.23 815.86 285.71C812.88 289.18 808.36 292.34 802.31 295.17" id="i14us20xKx"></path><path d="M824.13 302.28C810.74 222.66 807.55 163.93 814.55 126.08C821.55 88.23 838.74 71.27 866.13 75.18" id="a8gvNI5Y7"></path><path d="M828.88 86.33C837.1 75.16 844.48 68.87 851.04 67.45C857.59 66.03 864.13 66.31 870.66 68.3" id="aLbzRENOh"></path><path d="M965.04 114.51C943.41 97.51 925.05 85.43 909.98 78.28C894.91 71.13 883.11 68.89 874.59 71.58" id="a2VJTVLUa"></path><path d="M964.05 99.11C944.27 83.91 927.38 73.06 913.4 66.56C899.42 60.06 888.34 57.91 880.16 60.11" id="aszA6gSQU"></path><path d="M834.16 76.44C840.07 66.75 846.24 61.02 852.66 59.28C859.08 57.53 865.48 57.15 871.84 58.14" id="eneediElM"></path><path d="M960.12 84.36C944.63 71.68 930.74 62.42 918.46 56.57C906.17 50.73 895.48 48.3 886.39 49.3" id="cNdlX4C7G"></path><path d="M838.54 67.02C846.42 58.02 853.46 52.6 859.66 50.76C865.85 48.92 871.74 48.36 877.32 49.08" id="d3XCB9c0WH"></path><path d="M968.64 120.73C965.75 92.66 958.52 71.84 946.94 58.3C935.36 44.76 919.44 38.7 899.17 40.12" id="d2Qhn1EEx6"></path><path d="M844.65 57.9C851.34 49.19 857.94 44.09 864.43 42.6C870.93 41.1 878.54 40.28 887.25 40.12" id="a2hYDOWmms"></path><path d="M851 48.78C861.6 39.08 871.97 31.97 882.1 27.44C892.24 22.91 902.14 20.19 911.8 19.3" id="bbtG7jv5jC"></path><path d="M1160.52 366.99C1162.16 344.09 1160.38 326.84 1155.16 315.23C1147.33 297.82 1138.85 302.21 1132.83 291.78C1125.76 279.54 1116.47 275.75 1098.51 253.53C1080.56 231.31 1072.97 205.28 1071.49 200.92C1068.86 193.17 1066.74 185.19 1065.13 176.96C1048.84 106.14 1034.53 63.24 1022.21 48.26C994.19 14.24 957.71 4.58 912.78 19.3" id="d2p7iMT1o1"></path><path d="M968.64 322.39C969.28 317.12 948.73 325.21 951.83 299.73C953.11 289.2 961.34 281.99 968.64 262.17C973.51 248.96 977.64 235.06 981.04 220.47" id="b3DPq65eI4"></path><path d="M861.36 41.41C866.88 37.42 872.59 34.99 878.47 34.11C884.36 33.24 889.92 33.24 895.15 34.11" id="bIEPsHa9j"></path><path d="M1002.34 307.02C996.64 312.86 991.84 297.77 987.95 261.77C982.11 207.75 994.4 135.03 978.97 90.97C962.82 44.83 938.31 24.57 905.43 30.18" id="a5IIYu04N"></path><path d="M1028.23 287.82C1019.05 300.18 1010.97 288.9 1003.97 253.97C993.49 201.59 1000.74 112.7 986.29 78.28C967.76 34.15 944.69 15.74 917.07 23.04" id="beOVQ0WKU"></path><path d="M1042.65 276.51C1034.22 276.14 1027.11 258.94 1021.32 224.92C1012.63 173.89 1023.71 107.01 1007.89 72.38C988.22 29.37 960.49 11.39 924.68 18.45" id="caRILQWhZ"></path><path d="M1075.74 274.31C1062.24 271.51 1050.87 253.07 1041.64 218.98C1027.78 167.85 1043.27 110.27 1020.33 69.78C995.91 26.7 965.56 8.72 929.27 15.83" id="a21VBV9qoW"></path><path d="M862.94 345.05C848.22 324.62 837.8 299.39 831.68 269.35C822.5 224.29 827.31 194 826.21 164.81C824.56 120.91 833.49 93.2 853 81.66" id="d2JBKGFuXV"></path><path d="" id="c51VJLuj"></path><path d="M870.73 33.56C876.26 29.57 881.96 27.14 887.85 26.27C893.73 25.4 899.29 25.4 904.53 26.27" id="bTjzOGryn"></path></defs><g><g><g><g><use xlink:href="#a71YRnmhs" opacity="1" fill-opacity="0" stroke="#000000" stroke-width="1" stroke-opacity="1"></use></g></g><g><g><use xlink:href="#c23lVKwtK0" opacity="1" fill-opacity="0" stroke="#000000" stroke-width="1" stroke-opacity="1"></use></g></g><g><g><use xlink:href="#cJDyZjm1l" opacity="1" fill-opacity="0" stroke="#000000" stroke-width="1" stroke-opacity="1"></use></g></g><g><g><use xlink:href="#atmIbk46W" opacity="1" fill-opacity="0" stroke="#000000" stroke-width="1" stroke-opacity="1"></use></g></g><g><g><use xlink:href="#b3iV0GtjyC" opacity="1" fill-opacity="0" stroke="#000000" stroke-width="1" stroke-opacity="1"></use></g></g><g><g><use xlink:href="#d8G8gfgkJ" opacity="1" fill-opacity="0" stroke="#000000" stroke-width="1" stroke-opacity="1"></use></g></g><g><g><use xlink:href="#iqKK8tRBJ" opacity="1" fill-opacity="0" stroke="#000000" stroke-width="1" stroke-opacity="1"></use></g></g><g><g><use xlink:href="#a5eb4zbZNV" opacity="1" fill-opacity="0" stroke="#000000" stroke-width="1" stroke-opacity="1"></use></g></g><g><g><use xlink:href="#hDqYfeAAA" opacity="1" fill-opacity="0" stroke="#000000" stroke-width="1" stroke-opacity="1"></use></g></g><g><g><use xlink:href="#f81KaIjN5" opacity="1" fill-opacity="0" stroke="#000000" stroke-width="1" stroke-opacity="1"></use></g></g><g><g><use xlink:href="#cvvbE2Z31" opacity="1" fill-opacity="0" stroke="#000000" stroke-width="1" stroke-opacity="1"></use></g></g><g><g><use xlink:href="#aBWpZ4Bo3" opacity="1" fill-opacity="0" stroke="#000000" stroke-width="1" stroke-opacity="1"></use></g></g><g><g><use xlink:href="#bCCTLiq1n" opacity="1" fill-opacity="0" stroke="#000000" stroke-width="1" stroke-opacity="1"></use></g></g><g><g><use xlink:href="#b16dV3v0v" opacity="1" fill-opacity="0" stroke="#000000" stroke-width="1" stroke-opacity="1"></use></g></g><g><g><use xlink:href="#c8DmG3lV7" opacity="1" fill-opacity="0" stroke="#000000" stroke-width="1" stroke-opacity="1"></use></g></g><g><g><use xlink:href="#cdS9zUjHU" opacity="1" fill-opacity="0" stroke="#000000" stroke-width="1" stroke-opacity="1"></use></g></g><g><g><use xlink:href="#htg34E4Fq" opacity="1" fill-opacity="0" stroke="#000000" stroke-width="1" stroke-opacity="1"></use></g></g><g><g><use xlink:href="#e4wqpX4Qgi" opacity="1" fill-opacity="0" stroke="#000000" stroke-width="1" stroke-opacity="1"></use></g></g><g><g><use xlink:href="#b2FNqG2gRW" opacity="1" fill-opacity="0" stroke="#000000" stroke-width="1" stroke-opacity="1"></use></g></g><g><g><use xlink:href="#bYOZIbuXT" opacity="1" fill-opacity="0" stroke="#000000" stroke-width="1" stroke-opacity="1"></use></g></g><g><g><use xlink:href="#cA5y66OkG" opacity="1" fill-opacity="0" stroke="#000000" stroke-width="1" stroke-opacity="1"></use></g></g><g><g><use xlink:href="#a2hP2wzR3N" opacity="1" fill-opacity="0" stroke="#000000" stroke-width="1" stroke-opacity="1"></use></g></g><g><g><use xlink:href="#f1zinNV2Ch" opacity="1" fill-opacity="0" stroke="#000000" stroke-width="1" stroke-opacity="1"></use></g></g><g><g><use xlink:href="#bxb904Otv" opacity="1" fill-opacity="0" stroke="#000000" stroke-width="1" stroke-opacity="1"></use></g></g><g><g><use xlink:href="#a16Daw1zek" opacity="1" fill-opacity="0" stroke="#000000" stroke-width="1" stroke-opacity="1"></use></g></g><g><g><use xlink:href="#a7rdxyET8f" opacity="1" fill-opacity="0" stroke="#000000" stroke-width="1" stroke-opacity="1"></use></g></g><g><g><use xlink:href="#b5YSWxHju" opacity="1" fill-opacity="0" stroke="#000000" stroke-width="1" stroke-opacity="1"></use></g></g><g><g><use xlink:href="#c15V1D1xbf" opacity="1" fill-opacity="0" stroke="#000000" stroke-width="1" stroke-opacity="1"></use></g></g><g><g><use xlink:href="#ewaOEuNiI" opacity="1" fill-opacity="0" stroke="#000000" stroke-width="1" stroke-opacity="1"></use></g></g><g><g><use xlink:href="#f1dkI2o8CC" opacity="1" fill-opacity="0" stroke="#000000" stroke-width="1" stroke-opacity="1"></use></g></g><g><g><use xlink:href="#bnECIDg5e" opacity="1" fill-opacity="0" stroke="#000000" stroke-width="1" stroke-opacity="1"></use></g></g><g><g><use xlink:href="#a1F3vuTBC" opacity="1" fill-opacity="0" stroke="#000000" stroke-width="1" stroke-opacity="1"></use></g></g><g><g><use xlink:href="#c1uK6SpUfy" opacity="1" fill-opacity="0" stroke="#000000" stroke-width="1" stroke-opacity="1"></use></g></g><g><g><use xlink:href="#d6ZZp01Ie2" opacity="1" fill-opacity="0" stroke="#000000" stroke-width="1" stroke-opacity="1"></use></g></g><g><g><use xlink:href="#i14us20xKx" opacity="1" fill-opacity="0" stroke="#000000" stroke-width="1" stroke-opacity="1"></use></g></g><g><g><use xlink:href="#a8gvNI5Y7" opacity="1" fill-opacity="0" stroke="#000000" stroke-width="1" stroke-opacity="1"></use></g></g><g><g><use xlink:href="#aLbzRENOh" opacity="1" fill-opacity="0" stroke="#000000" stroke-width="1" stroke-opacity="1"></use></g></g><g><g><use xlink:href="#a2VJTVLUa" opacity="1" fill-opacity="0" stroke="#000000" stroke-width="1" stroke-opacity="1"></use></g></g><g><g><use xlink:href="#aszA6gSQU" opacity="1" fill-opacity="0" stroke="#000000" stroke-width="1" stroke-opacity="1"></use></g></g><g><g><use xlink:href="#eneediElM" opacity="1" fill-opacity="0" stroke="#000000" stroke-width="1" stroke-opacity="1"></use></g></g><g><g><use xlink:href="#cNdlX4C7G" opacity="1" fill-opacity="0" stroke="#000000" stroke-width="1" stroke-opacity="1"></use></g></g><g><g><use xlink:href="#d3XCB9c0WH" opacity="1" fill-opacity="0" stroke="#000000" stroke-width="1" stroke-opacity="1"></use></g></g><g><g><use xlink:href="#d2Qhn1EEx6" opacity="1" fill-opacity="0" stroke="#000000" stroke-width="1" stroke-opacity="1"></use></g></g><g><g><use xlink:href="#a2hYDOWmms" opacity="1" fill-opacity="0" stroke="#000000" stroke-width="1" stroke-opacity="1"></use></g></g><g><g><use xlink:href="#bbtG7jv5jC" opacity="1" fill-opacity="0" stroke="#000000" stroke-width="1" stroke-opacity="1"></use></g></g><g><g><use xlink:href="#d2p7iMT1o1" opacity="1" fill-opacity="0" stroke="#000000" stroke-width="1" stroke-opacity="1"></use></g></g><g><g><use xlink:href="#b3DPq65eI4" opacity="1" fill-opacity="0" stroke="#000000" stroke-width="1" stroke-opacity="1"></use></g></g><g><g><use xlink:href="#bIEPsHa9j" opacity="1" fill-opacity="0" stroke="#000000" stroke-width="1" stroke-opacity="1"></use></g></g><g><g><use xlink:href="#a5IIYu04N" opacity="1" fill-opacity="0" stroke="#000000" stroke-width="1" stroke-opacity="1"></use></g></g><g><g><use xlink:href="#beOVQ0WKU" opacity="1" fill-opacity="0" stroke="#000000" stroke-width="1" stroke-opacity="1"></use></g></g><g><g><use xlink:href="#caRILQWhZ" opacity="1" fill-opacity="0" stroke="#000000" stroke-width="1" stroke-opacity="1"></use></g></g><g><g><use xlink:href="#a21VBV9qoW" opacity="1" fill-opacity="0" stroke="#000000" stroke-width="1" stroke-opacity="1"></use></g></g><g><g><use xlink:href="#d2JBKGFuXV" opacity="1" fill-opacity="0" stroke="#000000" stroke-width="1" stroke-opacity="1"></use></g></g><g><g><use xlink:href="#c51VJLuj" opacity="1" fill-opacity="0" stroke="#000000" stroke-width="1" stroke-opacity="1"></use></g></g><g><g><use xlink:href="#bTjzOGryn" opacity="1" fill-opacity="0" stroke="#000000" stroke-width="1" stroke-opacity="1"></use></g></g></g></g></svg>